<svg width="300" height="110" viewBox="0 0 300 110" fill="none" xmlns="http://www.w3.org/2000/svg">
<g clip-path="url(#clip0_235_37)">
<path d="M92.2461 88.3211C92.2461 81.6695 86.8591 76.2773 80.214 76.2773C73.5688 76.2773 68.1819 81.6695 68.1819 88.3211V97.354C68.1819 104.006 73.5688 109.398 80.214 109.398C86.8591 109.398 92.2461 104.006 92.2461 97.354V88.3211Z" fill="#34B1E6"/>
<path d="M0 5.62044C0 2.51636 2.51391 0 5.61497 0H68.1818C74.827 0 80.2139 5.39219 80.2139 12.0438V100.365H5.61497C2.51391 100.365 0 97.8486 0 94.7445V5.62044Z" fill="#49E9F3"/>
<path d="M80.2139 12.0438C80.2139 5.39219 85.601 0 92.246 0H154.813C157.914 0 160.428 2.51636 160.428 5.62044V94.7445C160.428 97.8486 157.914 100.365 154.813 100.365H80.2139V12.0438Z" fill="#34B1E6"/>
<path d="M39.1042 17.062H19.0507C16.2819 17.062 14.0374 19.3088 14.0374 22.0803C14.0374 24.8518 16.2819 27.0985 19.0507 27.0985H39.1042C41.873 27.0985 44.1176 24.8518 44.1176 22.0803C44.1176 19.3088 41.873 17.062 39.1042 17.062Z" fill="#34B1E6"/>
<path d="M39.1042 32.1167H19.0507C16.2819 32.1167 14.0374 34.3634 14.0374 37.1349C14.0374 39.9064 16.2819 42.1532 19.0507 42.1532H39.1042C41.873 42.1532 44.1176 39.9064 44.1176 37.1349C44.1176 34.3634 41.873 32.1167 39.1042 32.1167Z" fill="#34B1E6"/>
<path d="M39.1042 47.1716H19.0507C16.2819 47.1716 14.0374 49.4184 14.0374 52.1899C14.0374 54.9614 16.2819 57.2081 19.0507 57.2081H39.1042C41.873 57.2081 44.1176 54.9614 44.1176 52.1899C44.1176 49.4184 41.873 47.1716 39.1042 47.1716Z" fill="#34B1E6"/>
<path d="M39.1042 62.2263H19.0507C16.2819 62.2263 14.0374 64.4731 14.0374 67.2446C14.0374 70.0161 16.2819 72.2628 19.0507 72.2628H39.1042C41.873 72.2628 44.1176 70.0161 44.1176 67.2446C44.1176 64.4731 41.873 62.2263 39.1042 62.2263Z" fill="#34B1E6"/>
<path d="M39.1042 77.281H19.0507C16.2819 77.281 14.0374 79.5278 14.0374 82.2993C14.0374 85.0708 16.2819 87.3175 19.0507 87.3175H39.1042C41.873 87.3175 44.1176 85.0708 44.1176 82.2993C44.1176 79.5278 41.873 77.281 39.1042 77.281Z" fill="#34B1E6"/>
<path d="M54.1445 27.0985C56.9133 27.0985 59.1578 24.8518 59.1578 22.0803C59.1578 19.3088 56.9133 17.062 54.1445 17.062C51.3757 17.062 49.1311 19.3088 49.1311 22.0803C49.1311 24.8518 51.3757 27.0985 54.1445 27.0985Z" fill="#34B1E6"/>
<path d="M54.1445 42.1532C56.9133 42.1532 59.1578 39.9064 59.1578 37.1349C59.1578 34.3634 56.9133 32.1167 54.1445 32.1167C51.3757 32.1167 49.1311 34.3634 49.1311 37.1349C49.1311 39.9064 51.3757 42.1532 54.1445 42.1532Z" fill="#34B1E6"/>
<path d="M54.1445 57.2081C56.9133 57.2081 59.1578 54.9614 59.1578 52.1899C59.1578 49.4184 56.9133 47.1716 54.1445 47.1716C51.3757 47.1716 49.1311 49.4184 49.1311 52.1899C49.1311 54.9614 51.3757 57.2081 54.1445 57.2081Z" fill="#34B1E6"/>
<path d="M54.1445 87.3175C56.9133 87.3175 59.1578 85.0708 59.1578 82.2993C59.1578 79.5278 56.9133 77.281 54.1445 77.281C51.3757 77.281 49.1311 79.5278 49.1311 82.2993C49.1311 85.0708 51.3757 87.3175 54.1445 87.3175Z" fill="#34B1E6"/>
<path d="M123.329 17.062H103.275C100.507 17.062 98.262 19.3088 98.262 22.0803C98.262 24.8518 100.507 27.0985 103.275 27.0985H123.329C126.098 27.0985 128.342 24.8518 128.342 22.0803C128.342 19.3088 126.098 17.062 123.329 17.062Z" fill="#49E9F3"/>
<path d="M123.329 32.1167H103.275C100.507 32.1167 98.262 34.3634 98.262 37.1349C98.262 39.9064 100.507 42.1532 103.275 42.1532H123.329C126.098 42.1532 128.342 39.9064 128.342 37.1349C128.342 34.3634 126.098 32.1167 123.329 32.1167Z" fill="#49E9F3"/>
<path d="M123.329 47.1716H103.275C100.507 47.1716 98.262 49.4184 98.262 52.1899C98.262 54.9614 100.507 57.2081 103.275 57.2081H123.329C126.098 57.2081 128.342 54.9614 128.342 52.1899C128.342 49.4184 126.098 47.1716 123.329 47.1716Z" fill="#49E9F3"/>
<path d="M123.329 62.2263H103.275C100.507 62.2263 98.262 64.4731 98.262 67.2446C98.262 70.0161 100.507 72.2628 103.275 72.2628H123.329C126.098 72.2628 128.342 70.0161 128.342 67.2446C128.342 64.4731 126.098 62.2263 123.329 62.2263Z" fill="#49E9F3"/>
<path d="M138.369 27.0985C141.138 27.0985 143.382 24.8518 143.382 22.0803C143.382 19.3088 141.138 17.062 138.369 17.062C135.6 17.062 133.356 19.3088 133.356 22.0803C133.356 24.8518 135.6 27.0985 138.369 27.0985Z" fill="#49E9F3"/>
<path d="M138.369 57.2081C141.138 57.2081 143.382 54.9614 143.382 52.1899C143.382 49.4184 141.138 47.1716 138.369 47.1716C135.6 47.1716 133.356 49.4184 133.356 52.1899C133.356 54.9614 135.6 57.2081 138.369 57.2081Z" fill="#49E9F3"/>
<path d="M175.397 67.6398V61.9942C178.765 63.2488 182.572 63.8761 186.818 63.8761C191.973 63.8761 194.55 62.151 194.55 58.701C194.55 56.1919 192.967 54.9373 189.803 54.9373H184.539C177.661 54.9373 174.222 51.8009 174.222 45.5281C174.222 38.628 179.118 35.178 188.91 35.178C192.67 35.178 196.234 35.7269 199.603 36.8246V42.4701C196.234 41.2155 192.67 40.5883 188.91 40.5883C183.27 40.5883 180.45 42.2349 180.45 45.5281C180.45 48.0372 181.813 49.2918 184.539 49.2918H189.803C197.119 49.2918 200.778 52.4282 200.778 58.701C200.778 65.7579 196.125 69.2864 186.818 69.2864C182.572 69.2864 178.765 68.7375 175.397 67.6398ZM205.125 40.353H209.731L210.671 44.352H216.875V49.2918H211.352V60.6534C211.352 62.9587 212.348 64.1114 214.337 64.1114H216.875V69.0512H211.329C207.193 69.0512 205.125 66.8321 205.125 62.3941V40.353ZM243.336 44.352V69.0512H238.472L237.719 65.8991C234.884 68.0005 231.876 69.0512 228.695 69.0512C223.651 69.0512 221.129 66.0637 221.129 60.0889V44.352H227.357V59.9242C227.357 62.6528 228.547 64.0173 230.929 64.0173C232.949 64.0173 235.01 63.2096 237.109 61.5944V44.352H243.336ZM264.862 50.7973C263.578 49.9504 261.964 49.527 260.021 49.527C256.152 49.527 254.217 51.699 254.217 56.0429C254.217 61.2023 256.23 63.782 260.256 63.782C261.886 63.782 263.421 63.5546 264.862 63.0998V50.7973ZM271.09 67.5692C267.314 68.5572 263.625 69.0512 260.021 69.0512C252.047 69.0512 248.06 64.77 248.06 56.2076C248.06 48.3039 251.961 44.352 259.763 44.352C261.424 44.352 263.123 44.744 264.862 45.5281V35.4132H271.09V67.5692ZM274.028 44.352H280.632L286.859 62.1354L292.945 44.352H299.431L289.186 69.7804C287.368 74.2654 284.462 77.4568 280.466 79.3542L277.458 75.0966C280.216 73.8891 282.221 71.9209 283.474 69.1923L274.028 44.352Z" fill="#333333"/>
</g>
<defs>
<clipPath id="clip0_235_37">
<rect width="300" height="110" fill="white"/>
</clipPath>
</defs>
</svg>
